<svg width="22" height="20" viewBox="0 0 22 20" fill="none" xmlns="http://www.w3.org/2000/svg">
<path fill-rule="evenodd" clip-rule="evenodd" d="M10.2326 0.803184L10.1439 0.769918C7.40837 -0.256639 4.35907 -0.25664 1.62353 0.769918C0.666891 1.12891 0 2.01793 0 3.04835V17.2211C0 18.7713 1.61912 19.6907 2.98623 19.1777C4.8455 18.48 6.92194 18.48 8.78122 19.1777L10.2326 19.7223V0.803184ZM11.7674 19.7223L13.2188 19.1777C15.0781 18.48 17.1545 18.48 19.0138 19.1777C20.3809 19.6907 22 18.7713 22 17.2211V3.04835C22 2.01793 21.3331 1.12891 20.3765 0.769918C17.6409 -0.25664 14.5916 -0.256639 11.8561 0.769918L11.7674 0.803184V19.7223Z" fill="white"/>
</svg>
